  0
SECTION
  2
HEADER
  9
$ACADVER
  1
AC1024
  9
$ACADMAINTVER
 70
6
  9
$DWGCODEPAGE
  3
ANSI_1252
  9
$LASTSAVEDBY
  1
unknown
  9
$INSBASE
 10
0.0
 20
0.0
 30
0.0
  9
$EXTMIN
 10
1e+20
 20
1e+20
 30
1e+20
  9
$EXTMAX
 10
-1e+20
 20
-1e+20
 30
-1e+20
  9
$LIMMIN
 10
0.0
 20
0.0
  9
$LIMMAX
 10
12.0
 20
9.0
  9
$ORTHOMODE
 70
0
  9
$REGENMODE
 70
1
  9
$FILLMODE
 70
1
  9
$QTEXTMODE
 70
0
  9
$MIRRTEXT
 70
0
  9
$LTSCALE
 40
1.0
  9
$ATTMODE
 70
1
  9
$TEXTSIZE
 40
0.2
  9
$TRACEWID
 40
0.05
  9
$TEXTSTYLE
  7
Notes
  9
$CLAYER
  8
0
  9
$CELTYPE
  6
ByLayer
  9
$CECOLOR
 62
256
  9
$CELTSCALE
 40
1.0
  9
$DISPSILH
 70
0
  9
$DIMSCALE
 40
1.0
  9
$DIMASZ
 40
3.0
  9
$DIMEXO
 40
1.5
  9
$DIMDLI
 40
6.0
  9
$DIMRND
 40
0.0
  9
$DIMDLE
 40
0.0
  9
$DIMEXE
 40
3.0
  9
$DIMTP
 40
0.0
  9
$DIMTM
 40
0.0
  9
$DIMTXT
 40
3.0
  9
$DIMCEN
 40
3.0
  9
$DIMTSZ
 40
0.0
  9
$DIMTOL
 70
0
  9
$DIMLIM
 70
0
  9
$DIMTIH
 70
0
  9
$DIMTOH
 70
0
  9
$DIMSE1
 70
0
  9
$DIMSE2
 70
0
  9
$DIMTAD
 70
1
  9
$DIMZIN
 70
3
  9
$DIMBLK
  1

  9
$DIMASO
 70
1
  9
$DIMSHO
 70
1
  9
$DIMPOST
  1

  9
$DIMAPOST
  1

  9
$DIMALT
 70
0
  9
$DIMALTD
 70
2
  9
$DIMALTF
 40
25.4
  9
$DIMLFAC
 40
1.0
  9
$DIMTOFL
 70
0
  9
$DIMTVP
 40
0.0
  9
$DIMTIX
 70
0
  9
$DIMSOXD
 70
0
  9
$DIMSAH
 70
0
  9
$DIMBLK1
  1

  9
$DIMBLK2
  1

  9
$DIMSTYLE
  2
Civil-Metric
  9
$DIMCLRD
 70
0
  9
$DIMCLRE
 70
0
  9
$DIMCLRT
 70
0
  9
$DIMTFAC
 40
1.0
  9
$DIMGAP
 40
2.0
  9
$DIMJUST
 70
0
  9
$DIMSD1
 70
0
  9
$DIMSD2
 70
0
  9
$DIMTOLJ
 70
1
  9
$DIMTZIN
 70
0
  9
$DIMALTZ
 70
0
  9
$DIMALTTZ
 70
0
  9
$DIMUPT
 70
0
  9
$DIMDEC
 70
2
  9
$DIMTDEC
 70
2
  9
$DIMALTU
 70
2
  9
$DIMALTTD
 70
2
  9
$DIMTXSTY
  7
Standard
  9
$DIMAUNIT
 70
0
  9
$DIMADEC
 70
2
  9
$DIMALTRND
 40
0.0
  9
$DIMAZIN
 70
2
  9
$DIMDSEP
 70
46
  9
$DIMATFIT
 70
3
  9
$DIMFRAC
 70
1
  9
$DIMLDRBLK
  1

  9
$DIMLUNIT
 70
2
  9
$DIMLWD
 70
-2
  9
$DIMLWE
 70
-2
  9
$DIMTMOVE
 70
0
  9
$DIMFXL
 40
1.0
  9
$DIMFXLON
 70
0
  9
$DIMJOGANG
 40
0.7853981633974483
  9
$DIMTFILL
 70
0
  9
$DIMTFILLCLR
 70
0
  9
$DIMARCSYM
 70
0
  9
$DIMLTYPE
  6

  9
$DIMLTEX1
  6

  9
$DIMLTEX2
  6

  9
$DIMTXTDIRECTION
 70
0
  9
$LUNITS
 70
2
  9
$LUPREC
 70
4
  9
$SKETCHINC
 40
0.1
  9
$FILLETRAD
 40
0.0
  9
$AUNITS
 70
0
  9
$AUPREC
 70
5
  9
$MENU
  1
.
  9
$ELEVATION
 40
0.0
  9
$PELEVATION
 40
0.0
  9
$THICKNESS
 40
0.0
  9
$LIMCHECK
 70
0
  9
$CHAMFERA
 40
0.0
  9
$CHAMFERB
 40
0.0
  9
$CHAMFERC
 40
0.0
  9
$CHAMFERD
 40
0.0
  9
$SKPOLY
 70
0
  9
$TDCREATE
 40
2458693.609039352
  9
$TDUPDATE
 40
2458693.609039352
  9
$TDINDWG
 40
0.0
  9
$TDUSRTIMER
 40
0.0
  9
$USRTIMER
 70
1
  9
$ANGBASE
 50
0.0
  9
$ANGDIR
 70
0
  9
$PDMODE
 70
0
  9
$PDSIZE
 40
0.0
  9
$PLINEWID
 40
0.0
  9
$SPLFRAME
 70
0
  9
$SPLINETYPE
 70
6
  9
$SPLINESEGS
 70
8
  9
$HANDSEED
  5
688
  9
$SURFTAB1
 70
6
  9
$SURFTAB2
 70
6
  9
$SURFTYPE
 70
6
  9
$SURFU
 70
6
  9
$SURFV
 70
6
  9
$UCSBASE
  2

  9
$UCSNAME
  2

  9
$UCSORG
 10
0.0
 20
0.0
 30
0.0
  9
$UCSXDIR
 10
1.0
 20
0.0
 30
0.0
  9
$UCSYDIR
 10
0.0
 20
1.0
 30
0.0
  9
$UCSORTHOREF
  2

  9
$UCSORTHOVIEW
 70
0
  9
$UCSORGTOP
 10
0.0
 20
0.0
 30
0.0
  9
$UCSORGBOTTOM
 10
0.0
 20
0.0
 30
0.0
  9
$UCSORGLEFT
 10
0.0
 20
0.0
 30
0.0
  9
$UCSORGRIGHT
 10
0.0
 20
0.0
 30
0.0
  9
$UCSORGFRONT
 10
0.0
 20
0.0
 30
0.0
  9
$UCSORGBACK
 10
0.0
 20
0.0
 30
0.0
  9
$PUCSBASE
  2

  9
$PUCSNAME
  2

  9
$PUCSORG
 10
0.0
 20
0.0
 30
0.0
  9
$PUCSXDIR
 10
1.0
 20
0.0
 30
0.0
  9
$PUCSYDIR
 10
0.0
 20
1.0
 30
0.0
  9
$PUCSORTHOREF
  2

  9
$PUCSORTHOVIEW
 70
0
  9
$PUCSORGTOP
 10
0.0
 20
0.0
 30
0.0
  9
$PUCSORGBOTTOM
 10
0.0
 20
0.0
 30
0.0
  9
$PUCSORGLEFT
 10
0.0
 20
0.0
 30
0.0
  9
$PUCSORGRIGHT
 10
0.0
 20
0.0
 30
0.0
  9
$PUCSORGFRONT
 10
0.0
 20
0.0
 30
0.0
  9
$PUCSORGBACK
 10
0.0
 20
0.0
 30
0.0
  9
$USERI1
 70
0
  9
$USERI2
 70
0
  9
$USERI3
 70
0
  9
$USERI4
 70
0
  9
$USERI5
 70
0
  9
$USERR1
 40
0.0
  9
$USERR2
 40
0.0
  9
$USERR3
 40
0.0
  9
$USERR4
 40
0.0
  9
$USERR5
 40
0.0
  9
$WORLDVIEW
 70
1
  9
$SHADEDGE
 70
3
  9
$SHADEDIF
 70
70
  9
$TILEMODE
 70
1
  9
$MAXACTVP
 70
64
  9
$PINSBASE
 10
0.0
 20
0.0
 30
0.0
  9
$PLIMCHECK
 70
0
  9
$PEXTMIN
 10
0.62886676639706
 20
0.7999999523162842
 30
0.0
  9
$PEXTMAX
 10
9.028866384927335
 20
7.199999570846558
 30
0.0
  9
$PLIMMIN
 10
-0.7005418191744587
 20
-0.2281003861915408
  9
$PLIMMAX
 10
10.29945794052965
 20
8.27189937351257
  9
$UNITMODE
 70
0
  9
$VISRETAIN
 70
1
  9
$PLINEGEN
 70
0
  9
$PSLTSCALE
 70
1
  9
$TREEDEPTH
 70
3020
  9
$CMLSTYLE
  2
Standard
  9
$CMLJUST
 70
0
  9
$CMLSCALE
 40
1.0
  9
$PROXYGRAPHICS
 70
1
  9
$MEASUREMENT
 70
1
  9
$CELWEIGHT
370
-1
  9
$ENDCAPS
280
0
  9
$JOINSTYLE
280
0
  9
$LWDISPLAY
290
0
  9
$INSUNITS
 70
4
  9
$HYPERLINKBASE
  1

  9
$STYLESHEET
  1

  9
$XEDIT
290
1
  9
$CEPSNTYPE
380
0
  9
$PSTYLEMODE
290
1
  9
$FINGERPRINTGUID
  2
B01E7250-B166-11E9-B002-34E6AD1D5348
  9
$VERSIONGUID
  2
B0243EC6-B166-11E9-88A9-34E6AD1D5348
  9
$EXTNAMES
290
1
  9
$PSVPSCALE
 40
0.0
  9
$OLESTARTUP
290
0
  9
$SORTENTS
280
127
  9
$INDEXCTL
280
0
  9
$HIDETEXT
280
1
  9
$XCLIPFRAME
280
0
  9
$HALOGAP
280
0
  9
$OBSCOLOR
 70
257
  9
$OBSLTYPE
280
0
  9
$INTERSECTIONDISPLAY
280
0
  9
$INTERSECTIONCOLOR
 70
257
  9
$DIMASSOC
280
2
  9
$PROJECTNAME
  1

  9
$CAMERADISPLAY
290
0
  9
$LENSLENGTH
 40
50.0
  9
$CAMERAHEIGHT
 40
0.0
  9
$STEPSPERSEC
 40
2.0
  9
$STEPSIZE
 40
6.0
  9
$3DDWFPREC
 40
2.0
  9
$PSOLWIDTH
 40
0.25
  9
$PSOLHEIGHT
 40
4.0
  9
$LOFTANG1
 40
1.570796326794896
  9
$LOFTANG2
 40
1.570796326794896
  9
$LOFTMAG1
 40
0.0
  9
$LOFTMAG2
 40
0.0
  9
$LOFTPARAM
 70
7
  9
$LOFTNORMALS
280
1
  9
$LATITUDE
 40
37.795
  9
$LONGITUDE
 40
-122.394
  9
$NORTHDIRECTION
 40
0.0
  9
$TIMEZONE
 70
-8000
  9
$LIGHTGLYPHDISPLAY
280
1
  9
$TILEMODELIGHTSYNCH
280
1
  9
$SOLIDHIST
280
1
  9
$SHOWHIST
280
1
  9
$DWFFRAME
280
2
  9
$DGNFRAME
280
0
  9
$REALWORLDSCALE
290
1
  9
$INTERFERECOLOR
 62
1
  9
$CSHADOW
280
0
  9
$SHADOWPLANELOCATION
 40
0.0
  0
ENDSEC
  0
SECTION
  2
CLASSES
  0
CLASS
  1
ACDBDICTIONARYWDFLT
  2
AcDbDictionaryWithDefault
  3
ObjectDBX Classes
 90
0
 91
0
280
0
281
0
  0
CLASS
  1
DICTIONARYVAR
  2
AcDbDictionaryVar
  3
ObjectDBX Classes
 90
0
 91
0
280
0
281
0
  0
CLASS
  1
TABLESTYLE
  2
AcDbTableStyle
  3
ObjectDBX Classes
 90
4095
 91
0
280
0
281
0
  0
CLASS
  1
MATERIAL
  2
AcDbMaterial
  3
ObjectDBX Classes
 90
1153
 91
0
280
0
281
0
  0
CLASS
  1
VISUALSTYLE
  2
AcDbVisualStyle
  3
ObjectDBX Classes
 90
4095
 91
0
280
0
281
0
  0
CLASS
  1
SCALE
  2
AcDbScale
  3
ObjectDBX Classes
 90
1153
 91
0
280
0
281
0
  0
CLASS
  1
MLEADERSTYLE
  2
AcDbMLeaderStyle
  3
ACDB_MLEADERSTYLE_CLASS
 90
4095
 91
0
280
0
281
0
  0
CLASS
  1
CELLSTYLEMAP
  2
AcDbCellStyleMap
  3
ObjectDBX Classes
 90
1152
 91
0
280
0
281
0
  0
CLASS
  1
EXACXREFPANELOBJECT
  2
ExAcXREFPanelObject
  3
EXAC_ESW
 90
1025
 91
0
280
0
281
0
  0
CLASS
  1
NPOCOLLECTION
  2
AcDbImpNonPersistentObjectsCollection
  3
ObjectDBX Classes
 90
1153
 91
0
280
0
281
0
  0
CLASS
  1
LAYER_INDEX
  2
AcDbLayerIndex
  3
ObjectDBX Classes
 90
0
 91
0
280
0
281
0
  0
CLASS
  1
SPATIAL_INDEX
  2
AcDbSpatialIndex
  3
ObjectDBX Classes
 90
0
 91
0
280
0
281
0
  0
CLASS
  1
IDBUFFER
  2
AcDbIdBuffer
  3
ObjectDBX Classes
 90
0
 91
0
280
0
281
0
  0
CLASS
  1
DIMASSOC
  2
AcDbDimAssoc
  3
"AcDbDimAssoc|Product Desc:     AcDim ARX App For Dimension|Company:          Autodesk, Inc.|WEB Address:      www.autodesk.com"
 90
0
 91
0
280
0
281
0
  0
CLASS
  1
IMAGEDEF
  2
AcDbRasterImageDef
  3
ISM
 90
0
 91
0
280
0
281
0
  0
CLASS
  1
RASTERVARIABLES
  2
AcDbRasterVariables
  3
ISM
 90
0
 91
0
280
0
281
0
  0
CLASS
  1
IMAGEDEF_REACTOR
  2
AcDbRasterImageDefReactor
  3
ISM
 90
1
 91
0
280
0
281
0
  0
CLASS
  1
IMAGE
  2
AcDbRasterImage
  3
ISM
 90
2175
 91
0
280
0
281
1
  0
CLASS
  1
PDFDEFINITION
  2
AcDbPdfDefinition
  3
ObjectDBX Classes
 90
1153
 91
0
280
0
281
0
  0
CLASS
  1
PDFUNDERLAY
  2
AcDbPdfReference
  3
ObjectDBX Classes
 90
4095
 91
0
280
0
281
1
  0
CLASS
  1
DWFDEFINITION
  2
AcDbDwfDefinition
  3
ObjectDBX Classes
 90
1153
 91
0
280
0
281
0
  0
CLASS
  1
DWFUNDERLAY
  2
AcDbDwfReference
  3
ObjectDBX Classes
 90
1153
 91
0
280
0
281
1
  0
CLASS
  1
DGNDEFINITION
  2
AcDbDgnDefinition
  3
ObjectDBX Classes
 90
1153
 91
0
280
0
281
0
  0
CLASS
  1
DGNUNDERLAY
  2
AcDbDgnReference
  3
ObjectDBX Classes
 90
1153
 91
0
280
0
281
1
  0
ENDSEC
  0
SECTION
  2
TABLES
  0
TABLE
  2
VPORT
  5
8
330
0
100
AcDbSymbolTable
 70
0
  0
ENDTAB
  0
TABLE
  2
LTYPE
  5
5F
330
0
100
AcDbSymbolTable
 70
3
  0
LTYPE
  5
14
330
5F
100
AcDbSymbolTableRecord
100
AcDbLinetypeTableRecord
  2
ByBlock
 70
0
  3

 72
65
 73
0
 40
0.0
  0
LTYPE
  5
15
330
5F
100
AcDbSymbolTableRecord
100
AcDbLinetypeTableRecord
  2
ByLayer
 70
0
  3

 72
65
 73
0
 40
0.0
  0
LTYPE
  5
16
330
5F
100
AcDbSymbolTableRecord
100
AcDbLinetypeTableRecord
  2
Continuous
 70
0
  3
Solid line
 72
65
 73
0
 40
0.0
  0
ENDTAB
  0
TABLE
  2
LAYER
  5
2
330
0
100
AcDbSymbolTable
 70
2
  0
LAYER
  5
10
330
2
100
AcDbSymbolTableRecord
100
AcDbLayerTableRecord
  2
0
 70
0
 62
7
  6
Continuous
370
-3
390
4E8
  0
LAYER
  5
21D
330
2
100
AcDbSymbolTableRecord
100
AcDbLayerTableRecord
  2
Defpoints
 70
0
 62
7
  6
Continuous
290
0
370
-3
390
4E8
  0
ENDTAB
  0
TABLE
  2
STYLE
  5
3
330
0
100
AcDbSymbolTable
 70
1
  0
STYLE
  5
11
330
3
100
AcDbSymbolTableRecord
100
AcDbTextStyleTableRecord
  2
Standard
 70
0
 40
0.0
 41
1.0
 50
0.0
 71
0
 42
0.2
  3
txt
  4

  0
ENDTAB
  0
TABLE
  2
VIEW
  5
6
330
0
100
AcDbSymbolTable
 70
0
  0
ENDTAB
  0
TABLE
  2
UCS
  5
7
330
0
100
AcDbSymbolTable
 70
0
  0
ENDTAB
  0
TABLE
  2
APPID
  5
9
330
0
100
AcDbSymbolTable
 70
11
  0
APPID
  5
12
330
9
100
AcDbSymbolTableRecord
100
AcDbRegAppTableRecord
  2
ACAD
 70
0
  0
APPID
  5
DD
330
9
100
AcDbSymbolTableRecord
100
AcDbRegAppTableRecord
  2
AcadAnnoPO
 70
0
  0
APPID
  5
DE
330
9
100
AcDbSymbolTableRecord
100
AcDbRegAppTableRecord
  2
AcadAnnotative
 70
0
  0
APPID
  5
DF
330
9
100
AcDbSymbolTableRecord
100
AcDbRegAppTableRecord
  2
ACAD_DSTYLE_DIMJAG
 70
0
  0
APPID
  5
E0
330
9
100
AcDbSymbolTableRecord
100
AcDbRegAppTableRecord
  2
ACAD_DSTYLE_DIMTALN
 70
0
  0
APPID
  5
107
330
9
100
AcDbSymbolTableRecord
100
AcDbRegAppTableRecord
  2
ACAD_MLEADERVER
 70
0
  0
APPID
  5
1B5
330
9
100
AcDbSymbolTableRecord
100
AcDbRegAppTableRecord
  2
AcAecLayerStandard
 70
0
  0
APPID
  5
1BA
330
9
100
AcDbSymbolTableRecord
100
AcDbRegAppTableRecord
  2
ACAD_EXEMPT_FROM_CAD_STANDARDS
 70
0
  0
APPID
  5
237
330
9
100
AcDbSymbolTableRecord
100
AcDbRegAppTableRecord
  2
ACAD_DSTYLE_DIMBREAK
 70
0
  0
APPID
  5
28E
330
9
100
AcDbSymbolTableRecord
100
AcDbRegAppTableRecord
  2
ACAD_PSEXT
 70
0
  0
APPID
  5
4C4
330
9
100
AcDbSymbolTableRecord
100
AcDbRegAppTableRecord
  2
HATCHBACKGROUNDCOLOR
 70
0
  0
ENDTAB
  0
TABLE
  2
DIMSTYLE
  5
A
330
0
100
AcDbSymbolTable
 70
1
100
AcDbDimStyleTable
 71
3
340
242
340
27
340
E1
  0
DIMSTYLE
105
27
330
A
100
AcDbSymbolTableRecord
100
AcDbDimStyleTableRecord
  2
Standard
 70
0
 41
3.0
 42
2.0
 43
9.0
 44
5.0
140
3.0
141
2.0
147
2.0
340
11
1001
ACAD_DSTYLE_DIMJAG
1070
388
1040
38.0
1001
ACAD_DSTYLE_DIMBREAK
1070
391
1040
90.0
1001
ACAD_DSTYLE_DIMTALN
1070
392
1070
0
  0
ENDTAB
  0
TABLE
  2
BLOCK_RECORD
  5
1
330
0
100
AcDbSymbolTable
 70
2
  0
BLOCK_RECORD
  5
1F
330
1
100
AcDbSymbolTableRecord
100
AcDbBlockTableRecord
  2
*Model_Space
340
4ED
 70
0
280
1
281
0
  0
BLOCK_RECORD
  5
58
330
1
100
AcDbSymbolTableRecord
100
AcDbBlockTableRecord
  2
*Paper_Space
340
4EE
 70
0
280
1
281
0
  0
ENDTAB
  0
ENDSEC
  0
SECTION
  2
BLOCKS
  0
BLOCK
  5
5A
330
58
100
AcDbEntity
 67
1
  8
0
100
AcDbBlockBegin
  2
*Paper_Space
 70
0
 10
0.0
 20
0.0
 30
0.0
  3
*Paper_Space
  1

  0
ENDBLK
  5
5B
330
58
100
AcDbEntity
 67
1
  8
0
100
AcDbBlockEnd
  0
BLOCK
  5
20
330
1F
100
AcDbEntity
  8
0
100
AcDbBlockBegin
  2
*Model_Space
 70
0
 10
0.0
 20
0.0
 30
0.0
  3
*Model_Space
  1

  0
ENDBLK
  5
21
330
1F
100
AcDbEntity
  8
0
100
AcDbBlockEnd
  0
ENDSEC
  0
SECTION
  2
ENTITIES
  0
LINE
  5
570
330
1F
100
AcDbEntity
  8
0
 67
0
100
AcDbLine
 10
16586.200000015666
 20
6604.000000001064
 11
17576.799999999756
 21
6604.000000001064
  0
LINE
  5
571
330
1F
100
AcDbEntity
  8
0
 67
0
100
AcDbLine
 10
17526.000000012787
 20
13868.400000000123
 11
17526.000000012787
 21
6705.599999999327
  0
LINE
  5
572
330
1F
100
AcDbEntity
  8
0
 67
0
100
AcDbLine
 10
101.60000000311902
 20
101.60000000294804
 11
7315.199999995818
 21
101.60000000294804
  0
LINE
  5
573
330
1F
100
AcDbEntity
  8
0
 67
0
100
AcDbLine
 10
7416.799999988514
 20
2705.100000008045
 11
7416.799999993316
 21
101.60000000294986
  0
LINE
  5
574
330
1F
100
AcDbEntity
  8
0
 67
0
100
AcDbLine
 10
3.6025085137225688e-09
 20
6705.599999999247
 11
3.6025085137225688e-09
 21
4.522007657214999e-09
  0
LINE
  5
575
330
1F
100
AcDbEntity
  8
0
 67
0
100
AcDbLine
 10
7416.79999999305
 20
1371.6000000080821
 11
8237.82039849185
 21
1371.6000000140323
  0
LINE
  5
576
330
1F
100
AcDbEntity
  8
0
 67
0
100
AcDbLine
 10
9817.100000039058
 20
723.9000000089054
 11
9956.800000044226
 21
723.9000000089054
  0
LINE
  5
577
330
1F
100
AcDbEntity
  8
0
 67
0
100
AcDbLine
 10
11087.10000004225
 20
723.9000000089054
 11
10947.400000037082
 21
723.9000000089054
  0
LINE
  5
578
330
1F
100
AcDbEntity
  8
0
 67
0
100
AcDbLine
 10
10947.400000037082
 20
723.9000000089054
 11
10947.400000037082
 21
622.300000010621
  0
LINE
  5
579
330
1F
100
AcDbEntity
  8
0
 67
0
100
AcDbLine
 10
9715.500000043448
 20
2247.900000015359
 11
9715.500000043448
 21
622.3000000163238
  0
LINE
  5
57A
330
1F
100
AcDbEntity
  8
0
 67
0
100
AcDbLine
 10
9956.800000044226
 20
622.300000010621
 11
9715.50000004295
 21
622.300000010247
  0
LINE
  5
57B
330
1F
100
AcDbEntity
  8
0
 67
0
100
AcDbLine
 10
9715.500000043448
 20
2908.3000000027514
 11
9715.500000043448
 21
3822.70000000443
  0
LINE
  5
57C
330
1F
100
AcDbEntity
  8
0
 67
0
100
AcDbLine
 10
7416.79999999006
 20
1600.2000000051512
 11
7950.148027361897
 21
1600.2000000150483
  0
LINE
  5
57D
330
1F
100
AcDbEntity
  8
0
 67
0
100
AcDbLine
 10
7416.79999999006
 20
1828.8000000043962
 11
7653.227177302549
 21
1828.8000000043962
  0
LINE
  5
57E
330
1F
100
AcDbEntity
  8
0
 67
0
100
AcDbLine
 10
7315.199999998119
 20
2705.100000008045
 11
7315.199999995818
 21
101.60000000294804
  0
LINE
  5
57F
330
1F
100
AcDbEntity
  8
0
 67
0
100
AcDbLine
 10
7416.799999988514
 20
3543.3000000112766
 11
7416.799999989966
 21
3619.5000000101927
  0
LINE
  5
580
330
1F
100
AcDbEntity
  8
0
 67
0
100
AcDbLine
 10
7315.199999998119
 20
3543.3000000112766
 11
7416.799999988514
 21
3543.3000000112766
  0
LINE
  5
581
330
1F
100
AcDbEntity
  8
0
 67
0
100
AcDbLine
 10
7315.199999998119
 20
2705.100000008045
 11
7416.799999988514
 21
2705.100000008045
  0
LINE
  5
582
330
1F
100
AcDbEntity
  8
0
 67
0
100
AcDbLine
 10
8610.599999995871
 20
3619.500000008993
 11
8610.599999995871
 21
2628.9000000094816
  0
LINE
  5
583
330
1F
100
AcDbEntity
  8
0
 67
0
100
AcDbLine
 10
8381.999999994965
 20
2628.9000000094816
 11
8381.999999994965
 21
3619.500000008993
  0
LINE
  5
584
330
1F
100
AcDbEntity
  8
0
 67
0
100
AcDbLine
 10
7365.999999995257
 20
3543.3000000190377
 11
7958.696903993416
 21
2950.603096020879
  0
LINE
  5
585
330
1F
100
AcDbEntity
  8
0
 67
0
100
AcDbLine
 10
7416.799999989783
 20
2603.5000000114906
 11
8356.599999990585
 21
2603.5000000114906
  0
LINE
  5
586
330
1F
100
AcDbEntity
  8
0
 67
0
100
AcDbLine
 10
7416.799999995048
 20
3721.100000011723
 11
8762.999999988817
 21
3721.100000011723
  0
LINE
  5
587
330
1F
100
AcDbEntity
  8
0
 67
0
100
AcDbLine
 10
7416.799999989966
 20
3721.1000000120334
 11
7416.799999993316
 21
6604.000000010528
  0
LINE
  5
588
330
1F
100
AcDbEntity
  8
0
 67
0
100
AcDbLine
 10
7416.799999991783
 20
3619.5000000104255
 11
8661.399999994785
 21
3619.5000000104255
  0
LINE
  5
589
330
1F
100
AcDbEntity
  8
0
 67
0
100
AcDbLine
 10
7416.79999999449
 20
457.2000000102039
 11
8407.399999999669
 21
457.20000001409966
  0
LINE
  5
58A
330
1F
100
AcDbEntity
  8
0
 67
0
100
AcDbLine
 10
8458.199999995595
 20
1384.3000000110387
 11
8458.199999999466
 21
508.00000001432403
  0
LINE
  5
58B
330
1F
100
AcDbEntity
  8
0
 67
0
100
AcDbLine
 10
7416.799999991757
 20
6604.0000000169875
 11
13665.20000003272
 21
6604.0000000169875
  0
LINE
  5
58C
330
1F
100
AcDbEntity
  8
0
 67
0
100
AcDbLine
 10
9956.800000044226
 20
723.9000000089054
 11
9956.800000044226
 21
622.300000010621
  0
LINE
  5
58D
330
1F
100
AcDbEntity
  8
0
 67
0
100
AcDbLine
 10
13665.200000040604
 20
3721.1000000077374
 11
13665.200000041827
 21
3098.7999999979725
  0
LINE
  5
58E
330
1F
100
AcDbEntity
  8
0
 67
0
100
AcDbLine
 10
12928.600000041202
 20
3098.79999999722
 11
10883.900000046217
 21
3098.7999999979725
  0
LINE
  5
58F
330
1F
100
AcDbEntity
  8
0
 67
0
100
AcDbLine
 10
10883.900000046217
 20
3098.7999999979725
 11
10883.900000046217
 21
3822.7000000077323
  0
LINE
  5
590
330
1F
100
AcDbEntity
  8
0
 67
0
100
AcDbLine
 10
9994.900000044297
 20
3822.7000000067173
 11
9715.500000042015
 21
3822.7000000077323
  0
LINE
  5
591
330
1F
100
AcDbEntity
  8
0
 67
0
100
AcDbLine
 10
8762.999999996538
 20
3721.100000009196
 11
8762.999999996538
 21
3543.300000011627
  0
LINE
  5
592
330
1F
100
AcDbEntity
  8
0
 67
0
100
AcDbLine
 10
8762.999999996538
 20
3543.300000011627
 11
8661.399999993555
 21
3543.300000011627
  0
LINE
  5
593
330
1F
100
AcDbEntity
  8
0
 67
0
100
AcDbLine
 10
8661.399999993555
 20
3543.300000011627
 11
8661.399999993555
 21
3619.5000000138666
  0
LINE
  5
594
330
1F
100
AcDbEntity
  8
0
 67
0
100
AcDbLine
 10
9715.500000042015
 20
2908.3000000075895
 11
9817.100000043638
 21
2908.3000000075895
  0
LINE
  5
595
330
1F
100
AcDbEntity
  8
0
 67
0
100
AcDbLine
 10
9817.100000043638
 20
2908.3000000075895
 11
9817.100000043638
 21
2997.200000003584
  0
LINE
  5
596
330
1F
100
AcDbEntity
  8
0
 67
0
100
AcDbLine
 10
8661.399999993555
 20
2705.1000000099666
 11
8762.999999996538
 21
2705.1000000099666
  0
LINE
  5
597
330
1F
100
AcDbEntity
  8
0
 67
0
100
AcDbLine
 10
13665.200000027926
 20
6604.000000014526
 11
13665.200000027926
 21
4686.300000018792
  0
LINE
  5
598
330
1F
100
AcDbEntity
  8
0
 67
0
100
AcDbLine
 10
9817.100000043638
 20
2997.200000003584
 11
11087.100000042228
 21
2997.200000003584
  0
LINE
  5
599
330
1F
100
AcDbEntity
  8
0
 67
0
100
AcDbLine
 10
13665.200000027926
 20
4686.300000018792
 11
13766.800000032084
 21
4686.300000018792
  0
LINE
  5
59A
330
1F
100
AcDbEntity
  8
0
 67
0
100
AcDbLine
 10
8762.999999996538
 20
2527.3000000123984
 11
8458.199999995239
 21
2527.3000000123984
  0
LINE
  5
59B
330
1F
100
AcDbEntity
  8
0
 67
0
100
AcDbLine
 10
13576.300000043517
 20
3721.1000000082004
 11
13665.200000043898
 21
3721.1000000082004
  0
LINE
  5
59C
330
1F
100
AcDbEntity
  8
0
 67
0
100
AcDbLine
 10
8458.199999995239
 20
2527.3000000123984
 11
8458.199999995239
 21
1384.3000000094376
  0
LINE
  5
59D
330
1F
100
AcDbEntity
  8
0
 67
0
100
AcDbLine
 10
8458.199999995239
 20
1384.3000000094376
 11
8356.599999992253
 21
1384.3000000094376
  0
LINE
  5
59E
330
1F
100
AcDbEntity
  8
0
 67
0
100
AcDbLine
 10
13030.200000044304
 20
3098.8000000000548
 11
13030.200000044304
 21
3721.1000000082004
  0
LINE
  5
59F
330
1F
100
AcDbEntity
  8
0
 67
0
100
AcDbLine
 10
9817.100000043638
 20
3721.1000000133436
 11
9817.100000043638
 21
3098.7999999979725
  0
LINE
  5
5A0
330
1F
100
AcDbEntity
  8
0
 67
0
100
AcDbLine
 10
13030.200000044304
 20
3721.1000000082004
 11
13119.100000039209
 21
3721.1000000082004
  0
LINE
  5
5A1
330
1F
100
AcDbEntity
  8
0
 67
0
100
AcDbLine
 10
13119.100000039209
 20
3721.1000000082004
 11
13119.100000039209
 21
3822.700000005507
  0
LINE
  5
5A2
330
1F
100
AcDbEntity
  8
0
 67
0
100
AcDbLine
 10
9817.100000043638
 20
3098.7999999979725
 11
10782.300000044594
 21
3098.7999999979725
  0
LINE
  5
5A3
330
1F
100
AcDbEntity
  8
0
 67
0
100
AcDbLine
 10
13119.100000039209
 20
3822.700000005507
 11
12928.60000004152
 21
3822.700000005507
  0
LINE
  5
5A4
330
1F
100
AcDbEntity
  8
0
 67
0
100
AcDbLine
 10
10782.300000044594
 20
3098.7999999979725
 11
10782.300000044594
 21
3721.1000000133436
  0
LINE
  5
5A5
330
1F
100
AcDbEntity
  8
0
 67
0
100
AcDbLine
 10
12928.60000004152
 20
3822.700000005507
 11
12928.60000004152
 21
3098.8000000000548
  0
LINE
  5
5A6
330
1F
100
AcDbEntity
  8
0
 67
0
100
AcDbLine
 10
13665.200000040604
 20
3822.7000000054677
 11
13665.200000041827
 21
3911.6000000109616
  0
LINE
  5
5A7
330
1F
100
AcDbEntity
  8
0
 67
0
100
AcDbLine
 10
7416.79999999305
 20
685.8000000088036
 11
8458.199999998345
 21
685.8000000147536
  0
LINE
  5
5A8
330
1F
100
AcDbEntity
  8
0
 67
0
100
AcDbLine
 10
13030.200000044006
 20
3098.79999999722
 11
13665.200000041827
 21
3098.7999999979725
  0
LINE
  5
5A9
330
1F
100
AcDbEntity
  8
0
 67
0
100
AcDbLine
 10
13576.300000043517
 20
3822.700000005507
 11
13576.300000043517
 21
3721.1000000082004
  0
LINE
  5
5AA
330
1F
100
AcDbEntity
  8
0
 67
0
100
AcDbLine
 10
8661.39999999647
 20
2705.100000008232
 11
8661.39999999647
 21
2628.9000000122323
  0
LINE
  5
5AB
330
1F
100
AcDbEntity
  8
0
 67
0
100
AcDbLine
 10
13665.20000003752
 20
3911.600000008592
 11
13766.800000044746
 21
3911.600000008592
  0
LINE
  5
5AC
330
1F
100
AcDbEntity
  8
0
 67
0
100
AcDbLine
 10
13766.800000044746
 20
3911.600000008592
 11
13766.800000044746
 21
2997.2000000005883
  0
LINE
  5
5AD
330
1F
100
AcDbEntity
  8
0
 67
0
100
AcDbLine
 10
8356.599999994858
 20
2628.9000000122323
 11
8356.599999994858
 21
1384.3000000100487
  0
LINE
  5
5AE
330
1F
100
AcDbEntity
  8
0
 67
0
100
AcDbLine
 10
11188.700000048164
 20
2997.2000000005883
 11
13766.800000044746
 21
2997.2000000005883
  0
LINE
  5
5AF
330
1F
100
AcDbEntity
  8
0
 67
0
100
AcDbLine
 10
9817.100000040275
 20
1358.900000004202
 11
11087.100000039944
 21
1358.900000004202
  0
LINE
  5
5B0
330
1F
100
AcDbEntity
  8
0
 67
0
100
AcDbLine
 10
8661.39999999647
 20
2628.9000000122323
 11
8356.599999994858
 21
2628.9000000122323
  0
LINE
  5
5B1
330
1F
100
AcDbEntity
  8
0
 67
0
100
AcDbLine
 10
9817.100000045144
 20
3721.1000000089234
 11
9994.900000044297
 21
3721.1000000089234
  0
LINE
  5
5B2
330
1F
100
AcDbEntity
  8
0
 67
0
100
AcDbLine
 10
9994.900000044297
 20
3721.1000000089234
 11
9994.900000044297
 21
3822.7000000067173
  0
LINE
  5
5B3
330
1F
100
AcDbEntity
  8
0
 67
0
100
AcDbLine
 10
10604.500000047135
 20
3822.7000000067173
 11
10604.500000047135
 21
3721.1000000089234
  0
LINE
  5
5B4
330
1F
100
AcDbEntity
  8
0
 67
0
100
AcDbLine
 10
11087.100000039944
 20
1358.900000004202
 11
11087.100000039944
 21
723.900000010899
  0
LINE
  5
5B5
330
1F
100
AcDbEntity
  8
0
 67
0
100
AcDbLine
 10
10604.500000047135
 20
3721.1000000089234
 11
10782.300000046289
 21
3721.1000000089234
  0
LINE
  5
5B6
330
1F
100
AcDbEntity
  8
0
 67
0
100
AcDbLine
 10
10604.500000047135
 20
3822.7000000067173
 11
10883.900000046217
 21
3822.7000000077323
  0
LINE
  5
5B7
330
1F
100
AcDbEntity
  8
0
 67
0
100
AcDbLine
 10
11188.700000039247
 20
2997.200000000771
 11
11188.700000039247
 21
622.3000000053171
  0
LINE
  5
5B8
330
1F
100
AcDbEntity
  8
0
 67
0
100
AcDbLine
 10
13665.200000043898
 20
3822.700000005507
 11
13576.300000043517
 21
3822.700000005507
  0
LINE
  5
5B9
330
1F
100
AcDbEntity
  8
0
 67
0
100
AcDbLine
 10
8762.999999996538
 20
2705.1000000099666
 11
8762.999999996538
 21
2527.3000000123984
  0
LINE
  5
5BA
330
1F
100
AcDbEntity
  8
0
 67
0
100
AcDbLine
 10
11087.100000039087
 20
-507.9999999731008
 11
7416.799999992943
 21
-507.999999993448
  0
LINE
  5
5BB
330
1F
100
AcDbEntity
  8
0
 67
0
100
AcDbLine
 10
11188.700000039371
 20
-355.5999999972364
 11
11087.100000039087
 21
-355.5999999972364
  0
LINE
  5
5BC
330
1F
100
AcDbEntity
  8
0
 67
0
100
AcDbLine
 10
11087.100000039087
 20
-355.5999999972364
 11
11087.100000039087
 21
-507.9999999731008
  0
LINE
  5
5BD
330
1F
100
AcDbEntity
  8
0
 67
0
100
AcDbLine
 10
9715.500000040302
 20
2247.9000000170327
 11
9817.100000040275
 21
2247.9000000170327
  0
LINE
  5
5BE
330
1F
100
AcDbEntity
  8
0
 67
0
100
AcDbLine
 10
9817.100000040275
 20
2247.9000000170327
 11
9817.100000040275
 21
1460.5000000041755
  0
LINE
  5
5BF
330
1F
100
AcDbEntity
  8
0
 67
0
100
AcDbLine
 10
9817.100000040275
 20
1460.5000000041755
 11
11087.100000039944
 21
1460.5000000041755
  0
LINE
  5
5C0
330
1F
100
AcDbEntity
  8
0
 67
0
100
AcDbLine
 10
11087.100000039944
 20
1460.5000000041755
 11
11087.100000039944
 21
2997.200000003774
  0
LINE
  5
5C1
330
1F
100
AcDbEntity
  8
0
 67
0
100
AcDbLine
 10
9817.100000040275
 20
723.900000010899
 11
9817.100000040275
 21
1358.900000004202
  0
LINE
  5
5C2
330
1F
100
AcDbEntity
  8
0
 67
0
100
AcDbLine
 10
7416.799999992943
 20
101.60000000212631
 11
7416.799999992943
 21
-507.999999993448
  0
LINE
  5
5C3
330
1F
100
AcDbEntity
  8
0
 67
0
100
AcDbLine
 10
8458.199999998345
 20
914.4000000105466
 11
7416.79999999305
 21
914.4000000045962
  0
LINE
  5
5C4
330
1F
100
AcDbEntity
  8
0
 67
0
100
AcDbLine
 10
10947.400000037082
 20
622.300000010621
 11
11188.700000037083
 21
622.300000010247
  0
LINE
  5
5C5
330
1F
100
AcDbEntity
  8
0
 67
0
100
AcDbLine
 10
7416.79999999305
 20
1143.0000000063392
 11
8458.199999998345
 21
1143.0000000122893
  0
LINE
  5
5C6
330
1F
100
AcDbEntity
  8
0
 67
0
100
AcDbLine
 10
7416.799999988514
 20
2705.100000008045
 11
7416.799999993316
 21
101.60000000294986
  0
LINE
  5
5C7
330
1F
100
AcDbEntity
  8
0
 67
0
100
AcDbLine
 10
7416.79999999305
 20
1371.6000000080821
 11
8237.82039849185
 21
1371.6000000140323
  0
LINE
  5
5C8
330
1F
100
AcDbEntity
  8
0
 67
0
100
AcDbLine
 10
9817.100000039058
 20
723.9000000089054
 11
9956.800000044226
 21
723.9000000089054
  0
LINE
  5
5C9
330
1F
100
AcDbEntity
  8
0
 67
0
100
AcDbLine
 10
11087.10000004225
 20
723.9000000089054
 11
10947.400000037082
 21
723.9000000089054
  0
LINE
  5
5CA
330
1F
100
AcDbEntity
  8
0
 67
0
100
AcDbLine
 10
10947.400000037082
 20
723.9000000089054
 11
10947.400000037082
 21
622.300000010621
  0
LINE
  5
5CB
330
1F
100
AcDbEntity
  8
0
 67
0
100
AcDbLine
 10
9715.500000043448
 20
2247.900000015359
 11
9715.500000043448
 21
622.3000000163238
  0
LINE
  5
5CC
330
1F
100
AcDbEntity
  8
0
 67
0
100
AcDbLine
 10
9956.800000044226
 20
622.300000010621
 11
9715.50000004295
 21
622.300000010247
  0
LINE
  5
5CD
330
1F
100
AcDbEntity
  8
0
 67
0
100
AcDbLine
 10
9715.500000043448
 20
2908.3000000027514
 11
9715.500000043448
 21
3822.70000000443
  0
LINE
  5
5CE
330
1F
100
AcDbEntity
  8
0
 67
0
100
AcDbLine
 10
7416.79999999006
 20
1600.2000000051512
 11
7950.148027361897
 21
1600.2000000150483
  0
LINE
  5
5CF
330
1F
100
AcDbEntity
  8
0
 67
0
100
AcDbLine
 10
7416.79999999006
 20
1828.8000000043962
 11
7653.227177302549
 21
1828.8000000043962
  0
LINE
  5
5D0
330
1F
100
AcDbEntity
  8
0
 67
0
100
AcDbLine
 10
7416.799999988514
 20
3543.3000000112766
 11
7416.799999989966
 21
3619.5000000101927
  0
LINE
  5
5D1
330
1F
100
AcDbEntity
  8
0
 67
0
100
AcDbLine
 10
7315.199999998119
 20
3543.3000000112766
 11
7416.799999988514
 21
3543.3000000112766
  0
LINE
  5
5D2
330
1F
100
AcDbEntity
  8
0
 67
0
100
AcDbLine
 10
7315.199999998119
 20
2705.100000008045
 11
7416.799999988514
 21
2705.100000008045
  0
LINE
  5
5D3
330
1F
100
AcDbEntity
  8
0
 67
0
100
AcDbLine
 10
8610.599999995871
 20
3619.500000008993
 11
8610.599999995871
 21
2628.9000000094816
  0
LINE
  5
5D4
330
1F
100
AcDbEntity
  8
0
 67
0
100
AcDbLine
 10
8381.999999994965
 20
2628.9000000094816
 11
8381.999999994965
 21
3619.500000008993
  0
LINE
  5
5D5
330
1F
100
AcDbEntity
  8
0
 67
0
100
AcDbLine
 10
7365.999999995257
 20
3543.3000000190377
 11
7958.696903993416
 21
2950.603096020879
  0
LINE
  5
5D6
330
1F
100
AcDbEntity
  8
0
 67
0
100
AcDbLine
 10
7416.799999989783
 20
2603.5000000114906
 11
8356.599999990585
 21
2603.5000000114906
  0
LINE
  5
5D7
330
1F
100
AcDbEntity
  8
0
 67
0
100
AcDbLine
 10
7315.199999999437
 20
2705.1000000114636
 11
7315.199999999437
 21
-609.5999999895894
  0
LINE
  5
5D8
330
1F
100
AcDbEntity
  8
0
 67
0
100
AcDbLine
 10
7315.199999999437
 20
-609.5999999895894
 11
11188.699999996572
 21
-609.5999999895894
  0
LINE
  5
5D9
330
1F
100
AcDbEntity
  8
0
 67
0
100
AcDbLine
 10
7416.799999995048
 20
3721.100000011723
 11
8762.999999988817
 21
3721.100000011723
  0
LINE
  5
5DA
330
1F
100
AcDbEntity
  8
0
 67
0
100
AcDbLine
 10
7416.799999989966
 20
3721.1000000120334
 11
7416.799999993316
 21
6604.000000010528
  0
LINE
  5
5DB
330
1F
100
AcDbEntity
  8
0
 67
0
100
AcDbLine
 10
7416.799999991783
 20
3619.5000000104255
 11
8661.399999994785
 21
3619.5000000104255
  0
LINE
  5
5DC
330
1F
100
AcDbEntity
  8
0
 67
0
100
AcDbLine
 10
7416.79999999449
 20
457.2000000102039
 11
8407.399999999669
 21
457.20000001409966
  0
LINE
  5
5DD
330
1F
100
AcDbEntity
  8
0
 67
0
100
AcDbLine
 10
8458.199999995595
 20
1384.3000000110387
 11
8458.199999999466
 21
508.00000001432403
  0
LINE
  5
5DE
330
1F
100
AcDbEntity
  8
0
 67
0
100
AcDbLine
 10
7416.799999991757
 20
6604.0000000169875
 11
13665.20000003272
 21
6604.0000000169875
  0
LINE
  5
5DF
330
1F
100
AcDbEntity
  8
0
 67
0
100
AcDbLine
 10
9956.800000044226
 20
723.9000000089054
 11
9956.800000044226
 21
622.300000010621
  0
LINE
  5
5E0
330
1F
100
AcDbEntity
  8
0
 67
0
100
AcDbLine
 10
13665.200000040604
 20
3721.1000000077374
 11
13665.200000041827
 21
3098.7999999979725
  0
LINE
  5
5E1
330
1F
100
AcDbEntity
  8
0
 67
0
100
AcDbLine
 10
12928.600000041202
 20
3098.79999999722
 11
10883.900000046217
 21
3098.7999999979725
  0
LINE
  5
5E2
330
1F
100
AcDbEntity
  8
0
 67
0
100
AcDbLine
 10
10883.900000046217
 20
3098.7999999979725
 11
10883.900000046217
 21
3822.7000000077323
  0
LINE
  5
5E3
330
1F
100
AcDbEntity
  8
0
 67
0
100
AcDbLine
 10
9994.900000044297
 20
3822.7000000067173
 11
9715.500000042015
 21
3822.7000000077323
  0
LINE
  5
5E4
330
1F
100
AcDbEntity
  8
0
 67
0
100
AcDbLine
 10
8762.999999996538
 20
3721.100000009196
 11
8762.999999996538
 21
3543.300000011627
  0
LINE
  5
5E5
330
1F
100
AcDbEntity
  8
0
 67
0
100
AcDbLine
 10
8762.999999996538
 20
3543.300000011627
 11
8661.399999993555
 21
3543.300000011627
  0
LINE
  5
5E6
330
1F
100
AcDbEntity
  8
0
 67
0
100
AcDbLine
 10
8661.399999993555
 20
3543.300000011627
 11
8661.399999993555
 21
3619.5000000138666
  0
LINE
  5
5E7
330
1F
100
AcDbEntity
  8
0
 67
0
100
AcDbLine
 10
9715.500000042015
 20
2908.3000000075895
 11
9817.100000043638
 21
2908.3000000075895
  0
LINE
  5
5E8
330
1F
100
AcDbEntity
  8
0
 67
0
100
AcDbLine
 10
9817.100000043638
 20
2908.3000000075895
 11
9817.100000043638
 21
2997.200000003584
  0
LINE
  5
5E9
330
1F
100
AcDbEntity
  8
0
 67
0
100
AcDbLine
 10
8661.399999993555
 20
2705.1000000099666
 11
8762.999999996538
 21
2705.1000000099666
  0
LINE
  5
5EA
330
1F
100
AcDbEntity
  8
0
 67
0
100
AcDbLine
 10
13665.200000027926
 20
6604.000000014526
 11
13665.200000027926
 21
4686.300000018792
  0
LINE
  5
5EB
330
1F
100
AcDbEntity
  8
0
 67
0
100
AcDbLine
 10
9817.100000043638
 20
2997.200000003584
 11
11087.100000042228
 21
2997.200000003584
  0
LINE
  5
5EC
330
1F
100
AcDbEntity
  8
0
 67
0
100
AcDbLine
 10
13665.200000027926
 20
4686.300000018792
 11
13766.800000032084
 21
4686.300000018792
  0
LINE
  5
5ED
330
1F
100
AcDbEntity
  8
0
 67
0
100
AcDbLine
 10
8762.999999996538
 20
2527.3000000123984
 11
8458.199999995239
 21
2527.3000000123984
  0
LINE
  5
5EE
330
1F
100
AcDbEntity
  8
0
 67
0
100
AcDbLine
 10
13576.300000043517
 20
3721.1000000082004
 11
13665.200000043898
 21
3721.1000000082004
  0
LINE
  5
5EF
330
1F
100
AcDbEntity
  8
0
 67
0
100
AcDbLine
 10
8458.199999995239
 20
2527.3000000123984
 11
8458.199999995239
 21
1384.3000000094376
  0
LINE
  5
5F0
330
1F
100
AcDbEntity
  8
0
 67
0
100
AcDbLine
 10
8458.199999995239
 20
1384.3000000094376
 11
8356.599999992253
 21
1384.3000000094376
  0
LINE
  5
5F1
330
1F
100
AcDbEntity
  8
0
 67
0
100
AcDbLine
 10
13030.200000044304
 20
3098.8000000000548
 11
13030.200000044304
 21
3721.1000000082004
  0
LINE
  5
5F2
330
1F
100
AcDbEntity
  8
0
 67
0
100
AcDbLine
 10
9817.100000043638
 20
3721.1000000133436
 11
9817.100000043638
 21
3098.7999999979725
  0
LINE
  5
5F3
330
1F
100
AcDbEntity
  8
0
 67
0
100
AcDbLine
 10
13030.200000044304
 20
3721.1000000082004
 11
13119.100000039209
 21
3721.1000000082004
  0
LINE
  5
5F4
330
1F
100
AcDbEntity
  8
0
 67
0
100
AcDbLine
 10
13119.100000039209
 20
3721.1000000082004
 11
13119.100000039209
 21
3822.700000005507
  0
LINE
  5
5F5
330
1F
100
AcDbEntity
  8
0
 67
0
100
AcDbLine
 10
9817.100000043638
 20
3098.7999999979725
 11
10782.300000044594
 21
3098.7999999979725
  0
LINE
  5
5F6
330
1F
100
AcDbEntity
  8
0
 67
0
100
AcDbLine
 10
13119.100000039209
 20
3822.700000005507
 11
12928.60000004152
 21
3822.700000005507
  0
LINE
  5
5F7
330
1F
100
AcDbEntity
  8
0
 67
0
100
AcDbLine
 10
10782.300000044594
 20
3098.7999999979725
 11
10782.300000044594
 21
3721.1000000133436
  0
LINE
  5
5F8
330
1F
100
AcDbEntity
  8
0
 67
0
100
AcDbLine
 10
12928.60000004152
 20
3822.700000005507
 11
12928.60000004152
 21
3098.8000000000548
  0
LINE
  5
5F9
330
1F
100
AcDbEntity
  8
0
 67
0
100
AcDbLine
 10
13665.200000040604
 20
3822.7000000054677
 11
13665.200000041827
 21
3911.6000000109616
  0
LINE
  5
5FA
330
1F
100
AcDbEntity
  8
0
 67
0
100
AcDbLine
 10
7416.79999999305
 20
685.8000000088036
 11
8458.199999998345
 21
685.8000000147536
  0
LINE
  5
5FB
330
1F
100
AcDbEntity
  8
0
 67
0
100
AcDbLine
 10
13030.200000044006
 20
3098.79999999722
 11
13665.200000041827
 21
3098.7999999979725
  0
LINE
  5
5FC
330
1F
100
AcDbEntity
  8
0
 67
0
100
AcDbLine
 10
13576.300000043517
 20
3822.700000005507
 11
13576.300000043517
 21
3721.1000000082004
  0
LINE
  5
5FD
330
1F
100
AcDbEntity
  8
0
 67
0
100
AcDbLine
 10
8661.39999999647
 20
2705.100000008232
 11
8661.39999999647
 21
2628.9000000122323
  0
LINE
  5
5FE
330
1F
100
AcDbEntity
  8
0
 67
0
100
AcDbLine
 10
13665.20000003752
 20
3911.600000008592
 11
13766.800000044746
 21
3911.600000008592
  0
LINE
  5
5FF
330
1F
100
AcDbEntity
  8
0
 67
0
100
AcDbLine
 10
13766.800000044746
 20
3911.600000008592
 11
13766.800000044746
 21
2997.2000000005883
  0
LINE
  5
600
330
1F
100
AcDbEntity
  8
0
 67
0
100
AcDbLine
 10
8356.599999994858
 20
2628.9000000122323
 11
8356.599999994858
 21
1384.3000000100487
  0
LINE
  5
601
330
1F
100
AcDbEntity
  8
0
 67
0
100
AcDbLine
 10
11188.700000048164
 20
2997.2000000005883
 11
13766.800000044746
 21
2997.2000000005883
  0
LINE
  5
602
330
1F
100
AcDbEntity
  8
0
 67
0
100
AcDbLine
 10
9817.100000040275
 20
1358.900000004202
 11
11087.100000039944
 21
1358.900000004202
  0
LINE
  5
603
330
1F
100
AcDbEntity
  8
0
 67
0
100
AcDbLine
 10
8661.39999999647
 20
2628.9000000122323
 11
8356.599999994858
 21
2628.9000000122323
  0
LINE
  5
604
330
1F
100
AcDbEntity
  8
0
 67
0
100
AcDbLine
 10
9817.100000045144
 20
3721.1000000089234
 11
9994.900000044297
 21
3721.1000000089234
  0
LINE
  5
605
330
1F
100
AcDbEntity
  8
0
 67
0
100
AcDbLine
 10
9994.900000044297
 20
3721.1000000089234
 11
9994.900000044297
 21
3822.7000000067173
  0
LINE
  5
606
330
1F
100
AcDbEntity
  8
0
 67
0
100
AcDbLine
 10
10604.500000047135
 20
3822.7000000067173
 11
10604.500000047135
 21
3721.1000000089234
  0
LINE
  5
607
330
1F
100
AcDbEntity
  8
0
 67
0
100
AcDbLine
 10
11087.100000039944
 20
1358.900000004202
 11
11087.100000039944
 21
723.900000010899
  0
LINE
  5
608
330
1F
100
AcDbEntity
  8
0
 67
0
100
AcDbLine
 10
10604.500000047135
 20
3721.1000000089234
 11
10782.300000046289
 21
3721.1000000089234
  0
LINE
  5
609
330
1F
100
AcDbEntity
  8
0
 67
0
100
AcDbLine
 10
10604.500000047135
 20
3822.7000000067173
 11
10883.900000046217
 21
3822.7000000077323
  0
LINE
  5
60A
330
1F
100
AcDbEntity
  8
0
 67
0
100
AcDbLine
 10
11188.700000039247
 20
2997.200000000771
 11
11188.700000039247
 21
622.3000000053171
  0
LINE
  5
60B
330
1F
100
AcDbEntity
  8
0
 67
0
100
AcDbLine
 10
13665.200000043898
 20
3822.700000005507
 11
13576.300000043517
 21
3822.700000005507
  0
LINE
  5
60C
330
1F
100
AcDbEntity
  8
0
 67
0
100
AcDbLine
 10
8762.999999996538
 20
2705.1000000099666
 11
8762.999999996538
 21
2527.3000000123984
  0
LINE
  5
60D
330
1F
100
AcDbEntity
  8
0
 67
0
100
AcDbLine
 10
11087.100000039087
 20
-507.9999999731008
 11
7416.799999992943
 21
-507.999999993448
  0
LINE
  5
60E
330
1F
100
AcDbEntity
  8
0
 67
0
100
AcDbLine
 10
11188.700000039371
 20
-355.5999999972364
 11
11087.100000039087
 21
-355.5999999972364
  0
LINE
  5
60F
330
1F
100
AcDbEntity
  8
0
 67
0
100
AcDbLine
 10
11087.100000039087
 20
-355.5999999972364
 11
11087.100000039087
 21
-507.9999999731008
  0
LINE
  5
610
330
1F
100
AcDbEntity
  8
0
 67
0
100
AcDbLine
 10
9715.500000040302
 20
2247.9000000170327
 11
9817.100000040275
 21
2247.9000000170327
  0
LINE
  5
611
330
1F
100
AcDbEntity
  8
0
 67
0
100
AcDbLine
 10
9817.100000040275
 20
2247.9000000170327
 11
9817.100000040275
 21
1460.5000000041755
  0
LINE
  5
612
330
1F
100
AcDbEntity
  8
0
 67
0
100
AcDbLine
 10
9817.100000040275
 20
1460.5000000041755
 11
11087.100000039944
 21
1460.5000000041755
  0
LINE
  5
613
330
1F
100
AcDbEntity
  8
0
 67
0
100
AcDbLine
 10
11087.100000039944
 20
1460.5000000041755
 11
11087.100000039944
 21
2997.200000003774
  0
LINE
  5
614
330
1F
100
AcDbEntity
  8
0
 67
0
100
AcDbLine
 10
9817.100000040275
 20
723.900000010899
 11
9817.100000040275
 21
1358.900000004202
  0
LINE
  5
615
330
1F
100
AcDbEntity
  8
0
 67
0
100
AcDbLine
 10
7416.799999992943
 20
101.60000000212631
 11
7416.799999992943
 21
-507.999999993448
  0
LINE
  5
616
330
1F
100
AcDbEntity
  8
0
 67
0
100
AcDbLine
 10
8458.199999998345
 20
914.4000000105466
 11
7416.79999999305
 21
914.4000000045962
  0
LINE
  5
617
330
1F
100
AcDbEntity
  8
0
 67
0
100
AcDbLine
 10
10947.400000037082
 20
622.300000010621
 11
11188.700000037083
 21
622.300000010247
  0
LINE
  5
618
330
1F
100
AcDbEntity
  8
0
 67
0
100
AcDbLine
 10
7416.79999999305
 20
1143.0000000063392
 11
8458.199999998345
 21
1143.0000000122893
  0
LINE
  5
619
330
1F
100
AcDbEntity
  8
0
 67
0
100
AcDbLine
 10
7416.799999988514
 20
2705.100000008045
 11
7416.799999993316
 21
101.60000000294986
  0
LINE
  5
61A
330
1F
100
AcDbEntity
  8
0
 67
0
100
AcDbLine
 10
7416.79999999305
 20
1371.6000000080821
 11
8237.82039849185
 21
1371.6000000140323
  0
LINE
  5
61B
330
1F
100
AcDbEntity
  8
0
 67
0
100
AcDbLine
 10
9817.100000039058
 20
723.9000000089054
 11
9956.800000044226
 21
723.9000000089054
  0
LINE
  5
61C
330
1F
100
AcDbEntity
  8
0
 67
0
100
AcDbLine
 10
11087.10000004225
 20
723.9000000089054
 11
10947.400000037082
 21
723.9000000089054
  0
LINE
  5
61D
330
1F
100
AcDbEntity
  8
0
 67
0
100
AcDbLine
 10
10947.400000037082
 20
723.9000000089054
 11
10947.400000037082
 21
622.300000010621
  0
LINE
  5
61E
330
1F
100
AcDbEntity
  8
0
 67
0
100
AcDbLine
 10
9715.500000043448
 20
2247.900000015359
 11
9715.500000043448
 21
622.3000000163238
  0
LINE
  5
61F
330
1F
100
AcDbEntity
  8
0
 67
0
100
AcDbLine
 10
9956.800000044226
 20
622.300000010621
 11
9715.50000004295
 21
622.300000010247
  0
LINE
  5
620
330
1F
100
AcDbEntity
  8
0
 67
0
100
AcDbLine
 10
9715.500000043448
 20
2908.3000000027514
 11
9715.500000043448
 21
3822.70000000443
  0
LINE
  5
621
330
1F
100
AcDbEntity
  8
0
 67
0
100
AcDbLine
 10
7416.79999999006
 20
1600.2000000051512
 11
7950.148027361897
 21
1600.2000000150483
  0
LINE
  5
622
330
1F
100
AcDbEntity
  8
0
 67
0
100
AcDbLine
 10
7416.79999999006
 20
1828.8000000043962
 11
7653.227177302549
 21
1828.8000000043962
  0
LINE
  5
623
330
1F
100
AcDbEntity
  8
0
 67
0
100
AcDbLine
 10
7416.799999988514
 20
3543.3000000112766
 11
7416.799999989966
 21
3619.5000000101927
  0
LINE
  5
624
330
1F
100
AcDbEntity
  8
0
 67
0
100
AcDbLine
 10
7315.199999998119
 20
3543.3000000112766
 11
7416.799999988514
 21
3543.3000000112766
  0
LINE
  5
625
330
1F
100
AcDbEntity
  8
0
 67
0
100
AcDbLine
 10
7315.199999998119
 20
2705.100000008045
 11
7416.799999988514
 21
2705.100000008045
  0
LINE
  5
626
330
1F
100
AcDbEntity
  8
0
 67
0
100
AcDbLine
 10
8610.599999995871
 20
3619.500000008993
 11
8610.599999995871
 21
2628.9000000094816
  0
LINE
  5
627
330
1F
100
AcDbEntity
  8
0
 67
0
100
AcDbLine
 10
8381.999999994965
 20
2628.9000000094816
 11
8381.999999994965
 21
3619.500000008993
  0
LINE
  5
628
330
1F
100
AcDbEntity
  8
0
 67
0
100
AcDbLine
 10
7365.999999995257
 20
3543.3000000190377
 11
7958.696903993416
 21
2950.603096020879
  0
LINE
  5
629
330
1F
100
AcDbEntity
  8
0
 67
0
100
AcDbLine
 10
7416.799999989783
 20
2603.5000000114906
 11
8356.599999990585
 21
2603.5000000114906
  0
LINE
  5
62A
330
1F
100
AcDbEntity
  8
0
 67
0
100
AcDbLine
 10
7315.199999999437
 20
2705.1000000114636
 11
7315.199999999437
 21
-609.5999999895894
  0
LINE
  5
62B
330
1F
100
AcDbEntity
  8
0
 67
0
100
AcDbLine
 10
7315.199999999437
 20
-609.5999999895894
 11
11188.699999996572
 21
-609.5999999895894
  0
LINE
  5
62C
330
1F
100
AcDbEntity
  8
0
 67
0
100
AcDbLine
 10
12954.00000002934
 20
6705.59999999858
 11
14681.200000028351
 21
6705.59999999858
  0
LINE
  5
62D
330
1F
100
AcDbEntity
  8
0
 67
0
100
AcDbLine
 10
14681.200000030534
 20
6705.599999999356
 11
14681.200000030534
 21
6604.000000013031
  0
LINE
  5
62E
330
1F
100
AcDbEntity
  8
0
 67
0
100
AcDbLine
 10
7416.799999995048
 20
3721.100000011723
 11
8762.999999988817
 21
3721.100000011723
  0
LINE
  5
62F
330
1F
100
AcDbEntity
  8
0
 67
0
100
AcDbLine
 10
7416.799999989966
 20
3721.1000000120334
 11
7416.799999993316
 21
6604.000000010528
  0
LINE
  5
630
330
1F
100
AcDbEntity
  8
0
 67
0
100
AcDbLine
 10
13766.80000003023
 20
6604.000000013031
 11
14681.200000030534
 21
6604.000000013031
  0
LINE
  5
631
330
1F
100
AcDbEntity
  8
0
 67
0
100
AcDbLine
 10
7416.799999991783
 20
3619.5000000104255
 11
8661.399999994785
 21
3619.5000000104255
  0
LINE
  5
632
330
1F
100
AcDbEntity
  8
0
 67
0
100
AcDbLine
 10
7416.79999999449
 20
457.2000000102039
 11
8407.399999999669
 21
457.20000001409966
  0
LINE
  5
633
330
1F
100
AcDbEntity
  8
0
 67
0
100
AcDbLine
 10
8458.199999995595
 20
1384.3000000110387
 11
8458.199999999466
 21
508.00000001432403
  0
LINE
  5
634
330
1F
100
AcDbEntity
  8
0
 67
0
100
AcDbLine
 10
7416.799999991757
 20
6604.0000000169875
 11
13665.20000003272
 21
6604.0000000169875
  0
LINE
  5
635
330
1F
100
AcDbEntity
  8
0
 67
0
100
AcDbLine
 10
9956.800000044226
 20
723.9000000089054
 11
9956.800000044226
 21
622.300000010621
  0
LINE
  5
636
330
1F
100
AcDbEntity
  8
0
 67
0
100
AcDbLine
 10
13665.200000040604
 20
3721.1000000077374
 11
13665.200000041827
 21
3098.7999999979725
  0
LINE
  5
637
330
1F
100
AcDbEntity
  8
0
 67
0
100
AcDbLine
 10
7315.19999999926
 20
6604.000000016981
 11
101.59999997423688
 21
6604.000000016981
  0
LINE
  5
638
330
1F
100
AcDbEntity
  8
0
 67
0
100
AcDbLine
 10
12928.600000041202
 20
3098.79999999722
 11
10883.900000046217
 21
3098.7999999979725
  0
LINE
  5
639
330
1F
100
AcDbEntity
  8
0
 67
0
100
AcDbLine
 10
10883.900000046217
 20
3098.7999999979725
 11
10883.900000046217
 21
3822.7000000077323
  0
LINE
  5
63A
330
1F
100
AcDbEntity
  8
0
 67
0
100
AcDbLine
 10
9994.900000044297
 20
3822.7000000067173
 11
9715.500000042015
 21
3822.7000000077323
  0
LINE
  5
63B
330
1F
100
AcDbEntity
  8
0
 67
0
100
AcDbLine
 10
8762.999999996538
 20
3721.100000009196
 11
8762.999999996538
 21
3543.300000011627
  0
LINE
  5
63C
330
1F
100
AcDbEntity
  8
0
 67
0
100
AcDbLine
 10
8762.999999996538
 20
3543.300000011627
 11
8661.399999993555
 21
3543.300000011627
  0
LINE
  5
63D
330
1F
100
AcDbEntity
  8
0
 67
0
100
AcDbLine
 10
8661.399999993555
 20
3543.300000011627
 11
8661.399999993555
 21
3619.5000000138666
  0
LINE
  5
63E
330
1F
100
AcDbEntity
  8
0
 67
0
100
AcDbLine
 10
9715.500000042015
 20
2908.3000000075895
 11
9817.100000043638
 21
2908.3000000075895
  0
LINE
  5
63F
330
1F
100
AcDbEntity
  8
0
 67
0
100
AcDbLine
 10
9817.100000043638
 20
2908.3000000075895
 11
9817.100000043638
 21
2997.200000003584
  0
LINE
  5
640
330
1F
100
AcDbEntity
  8
0
 67
0
100
AcDbLine
 10
8661.399999993555
 20
2705.1000000099666
 11
8762.999999996538
 21
2705.1000000099666
  0
LINE
  5
641
330
1F
100
AcDbEntity
  8
0
 67
0
100
AcDbLine
 10
13665.200000027926
 20
6604.000000014526
 11
13665.200000027926
 21
4686.300000018792
  0
LINE
  5
642
330
1F
100
AcDbEntity
  8
0
 67
0
100
AcDbLine
 10
9817.100000043638
 20
2997.200000003584
 11
11087.100000042228
 21
2997.200000003584
  0
LINE
  5
643
330
1F
100
AcDbEntity
  8
0
 67
0
100
AcDbLine
 10
13665.200000027926
 20
4686.300000018792
 11
13766.800000032084
 21
4686.300000018792
  0
LINE
  5
644
330
1F
100
AcDbEntity
  8
0
 67
0
100
AcDbLine
 10
8762.999999996538
 20
2527.3000000123984
 11
8458.199999995239
 21
2527.3000000123984
  0
LINE
  5
645
330
1F
100
AcDbEntity
  8
0
 67
0
100
AcDbLine
 10
13576.300000043517
 20
3721.1000000082004
 11
13665.200000043898
 21
3721.1000000082004
  0
LINE
  5
646
330
1F
100
AcDbEntity
  8
0
 67
0
100
AcDbLine
 10
13766.800000032084
 20
4686.300000018792
 11
13766.800000032084
 21
6604.000000014526
  0
LINE
  5
647
330
1F
100
AcDbEntity
  8
0
 67
0
100
AcDbLine
 10
8458.199999995239
 20
2527.3000000123984
 11
8458.199999995239
 21
1384.3000000094376
  0
LINE
  5
648
330
1F
100
AcDbEntity
  8
0
 67
0
100
AcDbLine
 10
8458.199999995239
 20
1384.3000000094376
 11
8356.599999992253
 21
1384.3000000094376
  0
LINE
  5
649
330
1F
100
AcDbEntity
  8
0
 67
0
100
AcDbLine
 10
13030.200000044304
 20
3098.8000000000548
 11
13030.200000044304
 21
3721.1000000082004
  0
LINE
  5
64A
330
1F
100
AcDbEntity
  8
0
 67
0
100
AcDbLine
 10
9817.100000043638
 20
3721.1000000133436
 11
9817.100000043638
 21
3098.7999999979725
  0
LINE
  5
64B
330
1F
100
AcDbEntity
  8
0
 67
0
100
AcDbLine
 10
13030.200000044304
 20
3721.1000000082004
 11
13119.100000039209
 21
3721.1000000082004
  0
LINE
  5
64C
330
1F
100
AcDbEntity
  8
0
 67
0
100
AcDbLine
 10
13119.100000039209
 20
3721.1000000082004
 11
13119.100000039209
 21
3822.700000005507
  0
LINE
  5
64D
330
1F
100
AcDbEntity
  8
0
 67
0
100
AcDbLine
 10
9817.100000043638
 20
3098.7999999979725
 11
10782.300000044594
 21
3098.7999999979725
  0
LINE
  5
64E
330
1F
100
AcDbEntity
  8
0
 67
0
100
AcDbLine
 10
13119.100000039209
 20
3822.700000005507
 11
12928.60000004152
 21
3822.700000005507
  0
LINE
  5
64F
330
1F
100
AcDbEntity
  8
0
 67
0
100
AcDbLine
 10
10782.300000044594
 20
3098.7999999979725
 11
10782.300000044594
 21
3721.1000000133436
  0
LINE
  5
650
330
1F
100
AcDbEntity
  8
0
 67
0
100
AcDbLine
 10
12928.60000004152
 20
3822.700000005507
 11
12928.60000004152
 21
3098.8000000000548
  0
LINE
  5
651
330
1F
100
AcDbEntity
  8
0
 67
0
100
AcDbLine
 10
13665.200000040604
 20
3822.7000000054677
 11
13665.200000041827
 21
3911.6000000109616
  0
LINE
  5
652
330
1F
100
AcDbEntity
  8
0
 67
0
100
AcDbLine
 10
7416.79999999305
 20
685.8000000088036
 11
8458.199999998345
 21
685.8000000147536
  0
LINE
  5
653
330
1F
100
AcDbEntity
  8
0
 67
0
100
AcDbLine
 10
13030.200000044006
 20
3098.79999999722
 11
13665.200000041827
 21
3098.7999999979725
  0
LINE
  5
654
330
1F
100
AcDbEntity
  8
0
 67
0
100
AcDbLine
 10
13576.300000043517
 20
3822.700000005507
 11
13576.300000043517
 21
3721.1000000082004
  0
LINE
  5
655
330
1F
100
AcDbEntity
  8
0
 67
0
100
AcDbLine
 10
8661.39999999647
 20
2705.100000008232
 11
8661.39999999647
 21
2628.9000000122323
  0
LINE
  5
656
330
1F
100
AcDbEntity
  8
0
 67
0
100
AcDbLine
 10
13665.20000003752
 20
3911.600000008592
 11
13766.800000044746
 21
3911.600000008592
  0
LINE
  5
657
330
1F
100
AcDbEntity
  8
0
 67
0
100
AcDbLine
 10
13766.800000044746
 20
3911.600000008592
 11
13766.800000044746
 21
2997.2000000005883
  0
LINE
  5
658
330
1F
100
AcDbEntity
  8
0
 67
0
100
AcDbLine
 10
8356.599999994858
 20
2628.9000000122323
 11
8356.599999994858
 21
1384.3000000100487
  0
LINE
  5
659
330
1F
100
AcDbEntity
  8
0
 67
0
100
AcDbLine
 10
11188.700000048164
 20
2997.2000000005883
 11
13766.800000044746
 21
2997.2000000005883
  0
LINE
  5
65A
330
1F
100
AcDbEntity
  8
0
 67
0
100
AcDbLine
 10
9817.100000040275
 20
1358.900000004202
 11
11087.100000039944
 21
1358.900000004202
  0
LINE
  5
65B
330
1F
100
AcDbEntity
  8
0
 67
0
100
AcDbLine
 10
8661.39999999647
 20
2628.9000000122323
 11
8356.599999994858
 21
2628.9000000122323
  0
LINE
  5
65C
330
1F
100
AcDbEntity
  8
0
 67
0
100
AcDbLine
 10
9817.100000045144
 20
3721.1000000089234
 11
9994.900000044297
 21
3721.1000000089234
  0
LINE
  5
65D
330
1F
100
AcDbEntity
  8
0
 67
0
100
AcDbLine
 10
9994.900000044297
 20
3721.1000000089234
 11
9994.900000044297
 21
3822.7000000067173
  0
LINE
  5
65E
330
1F
100
AcDbEntity
  8
0
 67
0
100
AcDbLine
 10
10604.500000047135
 20
3822.7000000067173
 11
10604.500000047135
 21
3721.1000000089234
  0
LINE
  5
65F
330
1F
100
AcDbEntity
  8
0
 67
0
100
AcDbLine
 10
11087.100000039944
 20
1358.900000004202
 11
11087.100000039944
 21
723.900000010899
  0
LINE
  5
660
330
1F
100
AcDbEntity
  8
0
 67
0
100
AcDbLine
 10
10604.500000047135
 20
3721.1000000089234
 11
10782.300000046289
 21
3721.1000000089234
  0
LINE
  5
661
330
1F
100
AcDbEntity
  8
0
 67
0
100
AcDbLine
 10
10604.500000047135
 20
3822.7000000067173
 11
10883.900000046217
 21
3822.7000000077323
  0
LINE
  5
662
330
1F
100
AcDbEntity
  8
0
 67
0
100
AcDbLine
 10
11188.700000039247
 20
2997.200000000771
 11
11188.700000039247
 21
622.3000000053171
  0
LINE
  5
663
330
1F
100
AcDbEntity
  8
0
 67
0
100
AcDbLine
 10
11188.700000039247
 20
-355.59999999366755
 11
11188.700000039247
 21
-507.9999999729207
  0
LINE
  5
664
330
1F
100
AcDbEntity
  8
0
 67
0
100
AcDbLine
 10
13665.200000043898
 20
3822.700000005507
 11
13576.300000043517
 21
3822.700000005507
  0
LINE
  5
665
330
1F
100
AcDbEntity
  8
0
 67
0
100
AcDbLine
 10
12954.000000030148
 20
6705.599999999327
 11
12954.000000030148
 21
13868.400000000123
  0
LINE
  5
666
330
1F
100
AcDbEntity
  8
0
 67
0
100
AcDbLine
 10
8762.999999996538
 20
2705.1000000099666
 11
8762.999999996538
 21
2527.3000000123984
  0
LINE
  5
667
330
1F
100
AcDbEntity
  8
0
 67
0
100
AcDbLine
 10
11087.100000039087
 20
-507.9999999731008
 11
7416.799999992943
 21
-507.999999993448
  0
LINE
  5
668
330
1F
100
AcDbEntity
  8
0
 67
0
100
AcDbLine
 10
11188.700000039371
 20
-355.5999999972364
 11
11087.100000039087
 21
-355.5999999972364
  0
LINE
  5
669
330
1F
100
AcDbEntity
  8
0
 67
0
100
AcDbLine
 10
11087.100000039087
 20
-355.5999999972364
 11
11087.100000039087
 21
-507.9999999731008
  0
LINE
  5
66A
330
1F
100
AcDbEntity
  8
0
 67
0
100
AcDbLine
 10
9715.500000040302
 20
2247.9000000170327
 11
9817.100000040275
 21
2247.9000000170327
  0
LINE
  5
66B
330
1F
100
AcDbEntity
  8
0
 67
0
100
AcDbLine
 10
9817.100000040275
 20
2247.9000000170327
 11
9817.100000040275
 21
1460.5000000041755
  0
LINE
  5
66C
330
1F
100
AcDbEntity
  8
0
 67
0
100
AcDbLine
 10
9817.100000040275
 20
1460.5000000041755
 11
11087.100000039944
 21
1460.5000000041755
  0
LINE
  5
66D
330
1F
100
AcDbEntity
  8
0
 67
0
100
AcDbLine
 10
11087.100000039944
 20
1460.5000000041755
 11
11087.100000039944
 21
2997.200000003774
  0
LINE
  5
66E
330
1F
100
AcDbEntity
  8
0
 67
0
100
AcDbLine
 10
9817.100000040275
 20
723.900000010899
 11
9817.100000040275
 21
1358.900000004202
  0
LINE
  5
66F
330
1F
100
AcDbEntity
  8
0
 67
0
100
AcDbLine
 10
3.6025085137225688e-09
 20
4.522007657214999e-09
 11
7315.199999995228
 21
4.522007657214999e-09
  0
LINE
  5
670
330
1F
100
AcDbEntity
  8
0
 67
0
100
AcDbLine
 10
1.3816134014632553e-08
 20
6705.600000012428
 11
12801.60000002459
 21
6705.600000012428
  0
LINE
  5
671
330
1F
100
AcDbEntity
  8
0
 67
0
100
AcDbLine
 10
7315.199999995228
 20
-609.5999999923788
 11
17678.40000000017
 21
-609.5999999923788
  0
LINE
  5
672
330
1F
100
AcDbEntity
  8
0
 67
0
100
AcDbLine
 10
17678.40000000017
 20
-609.5999999923788
 11
17678.40000000017
 21
6705.599999999247
  0
LINE
  5
673
330
1F
100
AcDbEntity
  8
0
 67
0
100
AcDbLine
 10
12801.60000002459
 20
6705.600000012428
 11
12801.60000002459
 21
14020.80000000032
  0
LINE
  5
674
330
1F
100
AcDbEntity
  8
0
 67
0
100
AcDbLine
 10
12801.60000002459
 20
14020.80000000032
 11
17678.400000010704
 21
14020.80000000032
  0
LINE
  5
675
330
1F
100
AcDbEntity
  8
0
 67
0
100
AcDbLine
 10
17678.400000010704
 20
14020.80000000032
 11
17678.400000010704
 21
6705.600000012428
  0
LINE
  5
676
330
1F
100
AcDbEntity
  8
0
 67
0
100
AcDbLine
 10
7315.199999995228
 20
4.522007657214999e-09
 11
7315.199999995228
 21
-609.5999999923788
  0
LINE
  5
677
330
1F
100
AcDbEntity
  8
0
 67
0
100
AcDbLine
 10
17576.800000014347
 20
-507.99999999344664
 11
17576.80000001435
 21
6604.000000012848
  0
LINE
  5
678
330
1F
100
AcDbEntity
  8
0
 67
0
100
AcDbLine
 10
11188.700000039371
 20
-507.9999999731008
 11
17576.800000014347
 21
-507.99999999344664
  0
LINE
  5
679
330
1F
100
AcDbEntity
  8
0
 67
0
100
AcDbLine
 10
101.60000000881155
 20
6604.000000012842
 11
101.60000000881018
 21
101.60000000212221
  0
LINE
  5
67A
330
1F
100
AcDbEntity
  8
0
 67
0
100
AcDbLine
 10
7416.799999992943
 20
101.60000000212631
 11
7416.799999992943
 21
-507.999999993448
  0
LINE
  5
67B
330
1F
100
AcDbEntity
  8
0
 67
0
100
AcDbLine
 10
7315.199999998119
 20
3543.3000000112766
 11
7315.199999995818
 21
6604.000000010526
  0
LINE
  5
67C
330
1F
100
AcDbEntity
  8
0
 67
0
100
AcDbLine
 10
8458.199999998345
 20
914.4000000105466
 11
7416.79999999305
 21
914.4000000045962
  0
LINE
  5
67D
330
1F
100
AcDbEntity
  8
0
 67
0
100
AcDbLine
 10
10947.400000037082
 20
622.300000010621
 11
11188.700000037083
 21
622.300000010247
  0
LINE
  5
67E
330
1F
100
AcDbEntity
  8
0
 67
0
100
AcDbLine
 10
7416.79999999305
 20
1143.0000000063392
 11
8458.199999998345
 21
1143.0000000122893
  0
LINE
  5
67F
330
1F
100
AcDbEntity
  8
0
 67
0
100
AcDbLine
 10
12954.000000030148
 20
13868.400000000123
 11
17526.000000012787
 21
13868.400000000123
  0
LINE
  5
680
330
1F
100
AcDbEntity
  8
0
 67
0
100
AcDbLine
 10
17526.000000013857
 20
6705.600000000132
 11
16586.200000015666
 21
6705.600000000132
  0
LINE
  5
681
330
1F
100
AcDbEntity
  8
0
 67
0
100
AcDbLine
 10
16586.200000015666
 20
6705.600000000132
 11
16586.200000015666
 21
6604.000000001064
  0
ARC
  5
682
330
1F
100
AcDbEntity
  8
0
 67
0
100
AcDbCircle
 10
7365.999999995257
 20
3543.3000000190377
 40
838.2000000109929
100
AcDbArc
 50
-90.0
 51
-45.0
  0
ARC
  5
683
330
1F
100
AcDbEntity
  8
0
 67
0
100
AcDbCircle
 10
7365.999999995257
 20
3543.3000000190377
 40
838.2000000109929
100
AcDbArc
 50
-90.0
 51
-45.0
  0
ARC
  5
684
330
1F
100
AcDbEntity
  8
0
 67
0
100
AcDbCircle
 10
8407.400000000558
 20
508.00000001368653
 40
50.800000000511545
100
AcDbArc
 50
-90.0
 51
0.0
  0
ARC
  5
685
330
1F
100
AcDbEntity
  8
0
 67
0
100
AcDbCircle
 10
8407.400000000558
 20
508.00000001368653
 40
50.800000000511545
100
AcDbArc
 50
-90.0
 51
0.0
  0
ARC
  5
686
330
1F
100
AcDbEntity
  8
0
 67
0
100
AcDbCircle
 10
7365.999999995257
 20
3543.3000000190377
 40
838.2000000109929
100
AcDbArc
 50
-90.0
 51
-45.0
  0
ARC
  5
687
330
1F
100
AcDbEntity
  8
0
 67
0
100
AcDbCircle
 10
8407.400000000558
 20
508.00000001368653
 40
50.800000000511545
100
AcDbArc
 50
-90.0
 51
0.0
  0
ENDSEC
  0
SECTION
  2
OBJECTS
  0
DICTIONARY
  5
C
330
0
100
AcDbDictionary
281
1
  3
ACAD_COLOR
350
4E1
  3
ACAD_GROUP
350
4E2
  3
ACAD_LAYOUT
350
4E3
  3
ACAD_MATERIAL
350
4E4
  3
ACAD_MLEADERSTYLE
350
4E5
  3
ACAD_MLINESTYLE
350
4E6
  3
ACAD_PLOTSETTINGS
350
4E7
  3
ACAD_PLOTSTYLENAME
350
4E9
  3
ACAD_SCALELIST
350
4EA
  3
ACAD_TABLESTYLE
350
4EB
  3
ACAD_VISUALSTYLE
350
4EC
  0
DICTIONARY
  5
4E1
330
C
100
AcDbDictionary
281
1
  0
DICTIONARY
  5
4E2
330
C
100
AcDbDictionary
281
1
  0
DICTIONARY
  5
4E3
330
C
100
AcDbDictionary
281
1
  3
Model
350
4ED
  3
Layout1
350
4EE
  0
DICTIONARY
  5
4E4
330
C
100
AcDbDictionary
281
1
  3
ByBlock
350
56B
  3
ByLayer
350
56C
  3
Global
350
56D
  0
DICTIONARY
  5
4E5
330
C
100
AcDbDictionary
281
1
  3
Standard
350
56E
  0
DICTIONARY
  5
4E6
330
C
100
AcDbDictionary
281
1
  3
STANDARD
350
56F
  0
DICTIONARY
  5
4E7
330
C
100
AcDbDictionary
281
1
  0
ACDBPLACEHOLDER
  5
4E8
330
4E9
  0
ACDBDICTIONARYWDFLT
  5
4E9
330
C
100
AcDbDictionary
281
1
  3
Normal
350
4E8
100
AcDbDictionaryWithDefault
340
4E8
  0
DICTIONARY
  5
4EA
330
C
100
AcDbDictionary
281
1
  0
DICTIONARY
  5
4EB
330
C
100
AcDbDictionary
281
1
  0
DICTIONARY
  5
4EC
330
C
100
AcDbDictionary
281
1
  0
LAYOUT
  5
4ED
330
4E3
100
AcDbPlotSettings
  1

  2
DWFx ePlot (XPS Compatible).pc3
  4
ANSI_A_(8.50_x_11.00_Inches)
  6

 40
5.8
 41
17.8
 42
5.8
 43
17.8
 44
215.9
 45
279.4
 46
0.0
 47
0.0
 48
0.0
 49
0.0
140
0.0
141
0.0
142
1.0
143
14.53
 70
11952
 72
0
 73
1
 74
0
  7

 75
0
147
0.069
148
114.98
149
300.29
100
AcDbLayout
  1
Model
 70
1
 71
0
 10
0.0
 20
0.0
 11
12.0
 21
9.0
 12
0.0
 22
0.0
 32
0.0
 14
0.0
 24
0.0
 34
0.0
 15
0.0
 25
0.0
 35
0.0
146
0.0
 13
0.0
 23
0.0
 33
0.0
 16
1.0
 26
0.0
 36
0.0
 17
0.0
 27
1.0
 37
0.0
 76
0
330
1F
  0
LAYOUT
  5
4EE
330
4E3
100
AcDbPlotSettings
  1

  2
DWFx ePlot (XPS Compatible).pc3
  4
ANSI_A_(8.50_x_11.00_Inches)
  6

 40
5.8
 41
17.8
 42
5.8
 43
17.8
 44
215.9
 45
279.4
 46
0.0
 47
0.0
 48
0.0
 49
0.0
140
0.0
141
0.0
142
1.0
143
1.0
 70
688
 72
0
 73
1
 74
5
  7
acad.ctb
 75
16
147
1.0
148
0.0
149
0.0
100
AcDbLayout
  1
Layout1
 70
1
 71
1
 10
-0.7
 20
-0.23
 11
10.3
 21
8.27
 12
0.0
 22
0.0
 32
0.0
 14
0.63
 24
0.8
 34
0.0
 15
9.0
 25
7.2
 35
0.0
146
0.0
 13
0.0
 23
0.0
 33
0.0
 16
1.0
 26
0.0
 36
0.0
 17
0.0
 27
1.0
 37
0.0
 76
0
330
58
  0
MATERIAL
  5
56B
102
{ACAD_REACTORS
330
4E4
102
}
330
4E4
100
AcDbMaterial
  1
ByBlock
 94
63
  0
MATERIAL
  5
56C
102
{ACAD_REACTORS
330
4E4
102
}
330
4E4
100
AcDbMaterial
  1
ByLayer
 94
63
  0
MATERIAL
  5
56D
102
{ACAD_REACTORS
330
4E4
102
}
330
4E4
100
AcDbMaterial
  1
Global
 94
63
  0
MLEADERSTYLE
  5
56E
102
{ACAD_REACTORS
330
4E5
102
}
330
4E5
100
AcDbMLeaderStyle
179
2
170
2
171
1
172
0
 90
2
 40
0.0
 41
0.0
173
1
 91
-1056964608
340
14
 92
-2
290
1
 42
2.0
291
1
 43
8.0
  3
Standard
341
0
 44
4.0
300

342
11
174
1
178
1
175
1
176
0
 93
-1056964608
 45
4.0
292
0
297
0
 46
4.0
343
0
 94
-1056964608
 47
1.0
 49
1.0
140
1.0
293
1
141
0.0
294
1
177
0
142
1.0
295
0
296
0
143
3.75
271
0
272
9
273
9
  0
MLINESTYLE
  5
56F
102
{ACAD_REACTORS
330
4E6
102
}
330
4E6
100
AcDbMlineStyle
  2
STANDARD
 70
0
  3

 62
256
 51
90.0
 52
90.0
 71
2
 49
0.5
 62
256
  6
BYLAYER
 49
-0.5
 62
256
  6
BYLAYER
  0
ENDSEC
  0
EOF
